<?xml version="1.0" encoding="utf-8"?>
<!-- Generator: Adobe Illustrator 24.2.3, SVG Export Plug-In . SVG Version: 6.00 Build 0)  -->
<svg version="1.1" id="Calque_1" xmlns="http://www.w3.org/2000/svg" xmlns:xlink="http://www.w3.org/1999/xlink" x="0px" y="0px"
	 viewBox="0 0 100 100" style="enable-background:new 0 0 100 100;" xml:space="preserve">
<style type="text/css">
	.st0{fill:none;stroke:#FFFFFF;stroke-width:6;stroke-linecap:round;stroke-miterlimit:10;}
</style>
<g>
	<path class="st0" d="M50.4,36.72c0,0-0.8-21.73-30.58-12.07"/>
	<path class="st0" d="M40.9,40.33c0,0-15.93-14.79-30.15,13.09"/>
	<path class="st0" d="M36.72,49.6c0,0-21.73,0.8-12.07,30.58"/>
	<path class="st0" d="M40.33,59.1c0,0-14.79,15.93,13.09,30.15"/>
	<path class="st0" d="M49.6,63.28c0,0,0.8,21.73,30.58,12.07"/>
	<path class="st0" d="M59.1,59.67c0,0,15.93,14.79,30.15-13.09"/>
	<path class="st0" d="M63.28,50.4c0,0,21.73-0.8,12.07-30.58"/>
	<path class="st0" d="M59.67,40.9c0,0,14.79-15.93-13.09-30.15"/>
</g>
</svg>
