<?xml version="1.0" encoding="utf-8"?>
<!-- Generator: Adobe Illustrator 24.2.3, SVG Export Plug-In . SVG Version: 6.00 Build 0)  -->
<svg version="1.1" id="Calque_1" xmlns="http://www.w3.org/2000/svg" xmlns:xlink="http://www.w3.org/1999/xlink" x="0px" y="0px"
	 viewBox="0 0 100 100" style="enable-background:new 0 0 100 100;" xml:space="preserve">
<style type="text/css">
	.st0{fill:none;stroke:#FFFFFF;stroke-width:6;stroke-linecap:round;stroke-miterlimit:10;}
	.st1{fill:#FFFFFF;stroke:#FFFFFF;stroke-width:6;stroke-linecap:round;stroke-miterlimit:10;}
	.st2{fill:none;stroke:#FFFFFF;stroke-width:6;stroke-linecap:round;stroke-linejoin:round;stroke-miterlimit:10;}
</style>
<g>
	<path class="st0" d="M31.21,63.98c-1.1-2.51-1.71-5.29-1.71-8.2c0-11.32,9.18-20.5,20.5-20.5s20.5,9.18,20.5,20.5
		c0,6.83-3.34,12.88-8.47,16.6"/>
	<line class="st1" x1="50.5" y1="25.28" x2="50.5" y2="14.28"/>
	<line class="st1" x1="28.79" y1="33.86" x2="21.01" y2="26.08"/>
	<line class="st1" x1="19.5" y1="55.28" x2="8.5" y2="55.28"/>
	<line class="st1" x1="80.5" y1="56.28" x2="91.5" y2="56.28"/>
	<line class="st1" x1="71.92" y1="34.56" x2="79.7" y2="26.79"/>
	<path class="st2" d="M12.5,81.28c0,0,16-10,39,0s37,0,37,0"/>
	<path class="st2" d="M12.5,69.28c0,0,16-10,39,0s37,0,37,0"/>
</g>
</svg>
