<?xml version="1.0" encoding="utf-8"?>
<!-- Generator: Adobe Illustrator 24.2.3, SVG Export Plug-In . SVG Version: 6.00 Build 0)  -->
<svg version="1.1" id="Calque_1" xmlns="http://www.w3.org/2000/svg" xmlns:xlink="http://www.w3.org/1999/xlink" x="0px" y="0px"
	 viewBox="0 0 100 100" style="enable-background:new 0 0 100 100;" xml:space="preserve">
<style type="text/css">
	.st0{fill:none;stroke:#FFFFFF;stroke-width:6;stroke-linecap:round;stroke-miterlimit:10;}
</style>
<g>
	<path class="st0" d="M37,60.63c2.47-12.08,13.16-21.16,25.96-21.16c14.64,0,25.23,11.92,26.5,26.5c1,11.5-7,23.5-22,23.5h-35
		c-8.01,0-13-6.49-13-14.5s6.49-14.5,14.5-14.5L37,60.63z"/>
	<path class="st0" d="M29.09,53.58c-1.05-2.32-1.63-4.9-1.63-7.61c0-10.22,8.28-18.5,18.5-18.5c4.92,0,9.39,1.92,12.71,5.05"/>
	<line class="st0" x1="17.46" y1="44.48" x2="10.46" y2="44.48"/>
	<line class="st0" x1="25.19" y1="25.85" x2="20.07" y2="21.08"/>
	<line class="st0" x1="43.54" y1="17.51" x2="43.05" y2="10.52"/>
	<line class="st0" x1="62.65" y1="23.92" x2="67.06" y2="18.48"/>
</g>
</svg>
