<?xml version="1.0" encoding="utf-8"?>
<!-- Generator: Adobe Illustrator 24.2.3, SVG Export Plug-In . SVG Version: 6.00 Build 0)  -->
<svg version="1.1" id="Calque_1" xmlns="http://www.w3.org/2000/svg" xmlns:xlink="http://www.w3.org/1999/xlink" x="0px" y="0px"
	 viewBox="0 0 100 100" style="enable-background:new 0 0 100 100;" xml:space="preserve">
<style type="text/css">
	.st0{fill:none;stroke:#FFFFFF;stroke-width:6;stroke-linecap:round;stroke-miterlimit:10;}
</style>
<g>
	<g>
		<path class="st0" d="M37.91,51.99c2.3-11.23,12.23-19.68,24.14-19.68c13.61,0,23.46,11.08,24.64,24.64
			c0.93,10.69-6.51,21.85-20.46,21.85H33.69c-7.45,0-12.09-6.04-12.09-13.48s6.04-13.48,13.48-13.48L37.91,51.99z"/>
		<path class="st0" d="M30.56,45.43c-0.98-2.16-1.52-4.55-1.52-7.08c0-9.5,7.7-17.2,17.2-17.2c4.58,0,8.73,1.79,11.81,4.7"/>
		<line class="st0" x1="19.74" y1="36.96" x2="13.23" y2="36.96"/>
		<line class="st0" x1="26.93" y1="19.64" x2="22.16" y2="15.2"/>
		<line class="st0" x1="43.99" y1="11.88" x2="43.54" y2="5.39"/>
		<line class="st0" x1="61.77" y1="17.84" x2="65.86" y2="12.78"/>
	</g>
	<line class="st0" x1="33.69" y1="87.17" x2="31.83" y2="94.61"/>
	<line class="st0" x1="46.71" y1="87.17" x2="44.85" y2="94.61"/>
	<line class="st0" x1="58.8" y1="87.17" x2="56.94" y2="94.61"/>
	<line class="st0" x1="70.88" y1="87.17" x2="69.02" y2="94.61"/>
</g>
</svg>
