<?xml version="1.0" encoding="utf-8"?>
<!-- Generator: Adobe Illustrator 24.2.3, SVG Export Plug-In . SVG Version: 6.00 Build 0)  -->
<svg version="1.1" id="Calque_1" xmlns="http://www.w3.org/2000/svg" xmlns:xlink="http://www.w3.org/1999/xlink" x="0px" y="0px"
	 viewBox="0 0 100 100" style="enable-background:new 0 0 100 100;" xml:space="preserve">
<style type="text/css">
	.st0{fill:none;stroke:#FFFFFF;stroke-width:6;stroke-linecap:round;stroke-linejoin:round;stroke-miterlimit:10;}
</style>
<g>
	<circle class="st0" cx="50" cy="50" r="11.5"/>
	<line class="st0" x1="90.5" y1="50.5" x2="61.5" y2="50.5"/>
	<polyline class="st0" points="81.5,38.5 70.29,50.5 81.5,61.5 	"/>
	<line class="st0" x1="69.82" y1="85.32" x2="55.32" y2="60.21"/>
	<polyline class="st0" points="75.71,71.53 59.71,67.82 55.79,83.03 	"/>
	<line class="st0" x1="29.32" y1="84.82" x2="43.82" y2="59.71"/>
	<polyline class="st0" points="44.21,83.03 39.42,67.32 24.29,71.53 	"/>
	<line class="st0" x1="9.5" y1="49.5" x2="38.5" y2="49.5"/>
	<polyline class="st0" points="18.5,61.5 29.71,49.5 18.5,38.5 	"/>
	<line class="st0" x1="30.18" y1="14.68" x2="44.68" y2="39.79"/>
	<polyline class="st0" points="24.29,28.47 40.29,32.18 44.21,16.97 	"/>
	<line class="st0" x1="70.68" y1="15.18" x2="56.18" y2="40.29"/>
	<polyline class="st0" points="55.79,16.97 60.58,32.68 75.71,28.47 	"/>
</g>
</svg>
