<?xml version="1.0" encoding="utf-8"?>
<!-- Generator: Adobe Illustrator 24.2.3, SVG Export Plug-In . SVG Version: 6.00 Build 0)  -->
<svg version="1.1" id="Calque_1" xmlns="http://www.w3.org/2000/svg" xmlns:xlink="http://www.w3.org/1999/xlink" x="0px" y="0px"
	 viewBox="0 0 100 100" style="enable-background:new 0 0 100 100;" xml:space="preserve">
<style type="text/css">
	.st0{fill:none;stroke:#FFFFFF;stroke-width:6;stroke-linecap:round;stroke-miterlimit:10;}
</style>
<g>
	<path class="st0" d="M32.5,32.66C34.97,20.58,45.65,11.5,58.46,11.5c14.64,0,25.23,11.92,26.5,26.5c1,11.5-7,23.5-22,23.5h-35
		c-8.01,0-13-6.49-13-14.5s6.49-14.5,14.5-14.5L32.5,32.66z"/>
	<circle class="st0" cx="56.96" cy="86.5" r="2"/>
	<circle class="st0" cx="26.96" cy="73.5" r="2"/>
	<circle class="st0" cx="66.96" cy="73.5" r="2"/>
	<circle class="st0" cx="46.96" cy="73.5" r="2"/>
	<circle class="st0" cx="36.96" cy="86.5" r="2"/>
</g>
<g>
	<path class="st0" d="M32.5,32.66C34.97,20.58,45.65,11.5,58.46,11.5c14.64,0,25.23,11.92,26.5,26.5c1,11.5-7,23.5-22,23.5h-35
		c-8.01,0-13-6.49-13-14.5s6.49-14.5,14.5-14.5L32.5,32.66z"/>
	<line class="st0" x1="26.96" y1="70.5" x2="22.96" y2="88.5"/>
	<line class="st0" x1="40.29" y1="70.5" x2="36.29" y2="88.5"/>
	<line class="st0" x1="53.62" y1="70.5" x2="49.62" y2="88.5"/>
	<line class="st0" x1="66.96" y1="70.5" x2="62.96" y2="88.5"/>
</g>
</svg>
