<?xml version="1.0" encoding="utf-8"?>
<!-- Generator: Adobe Illustrator 24.2.3, SVG Export Plug-In . SVG Version: 6.00 Build 0)  -->
<svg version="1.1" id="Calque_1" xmlns="http://www.w3.org/2000/svg" xmlns:xlink="http://www.w3.org/1999/xlink" x="0px" y="0px"
	 viewBox="0 0 100 100" style="enable-background:new 0 0 100 100;" xml:space="preserve">
<style type="text/css">
	.st0{fill:none;stroke:#FFFFFF;stroke-width:6;stroke-linecap:round;stroke-miterlimit:10;}
</style>
<g>
	<path class="st0" d="M32.5,36.16C34.97,24.08,45.65,15,58.46,15c14.64,0,25.23,11.92,26.5,26.5c1,11.5-7,23.5-22,23.5h-35
		c-8.01,0-13-6.49-13-14.5S21.45,36,29.46,36L32.5,36.16z"/>
	<path class="st0" d="M27.96,83c0-1.1,2-5,2-5s2,3.9,2,5s-0.9,2-2,2C28.85,85,27.96,84.1,27.96,83z"/>
	<path class="st0" d="M44.46,83c0-1.1,2-5,2-5s2,3.9,2,5s-0.9,2-2,2S44.46,84.1,44.46,83z"/>
	<path class="st0" d="M60.96,83c0-1.1,2-5,2-5s2,3.9,2,5s-0.9,2-2,2S60.96,84.1,60.96,83z"/>
</g>
</svg>
