<?xml version="1.0" encoding="utf-8"?>
<!-- Generator: Adobe Illustrator 24.2.3, SVG Export Plug-In . SVG Version: 6.00 Build 0)  -->
<svg version="1.1" id="Calque_1" xmlns="http://www.w3.org/2000/svg" xmlns:xlink="http://www.w3.org/1999/xlink" x="0px" y="0px"
	 viewBox="0 0 100 100" style="enable-background:new 0 0 100 100;" xml:space="preserve">
<style type="text/css">
	.st0{fill:none;stroke:#FFFFFF;stroke-width:6;stroke-linecap:round;stroke-miterlimit:10;}
</style>
<g>
	<g>
		<path class="st0" d="M27.15,36c-0.04-0.87-0.03-1.75,0.05-2.63C28.29,20.79,37.44,10.5,50.07,10.5c11.05,0,20.27,7.84,22.41,18.26
			l2.62-0.14c6.91,0,12.51,5.6,12.51,12.51S83.3,53.65,76.39,53.65h-3.45H55.17"/>
		<path class="st0" d="M23.29,44.58c1.54-7.5,8.17-13.15,16.13-13.15c9.09,0,15.68,7.41,16.47,16.47c0.62,7.15-4.35,14.6-13.67,14.6
			H20.47c-4.98,0-8.08-4.03-8.08-9.01s4.03-9.01,9.01-9.01L23.29,44.58z"/>
	</g>
	<line class="st0" x1="35.38" y1="71.5" x2="31.38" y2="89.5"/>
	<line class="st0" x1="22.13" y1="71.5" x2="18.13" y2="89.5"/>
	<line class="st0" x1="48.63" y1="71.5" x2="44.63" y2="89.5"/>
	<line class="st0" x1="63.88" y1="62.5" x2="57.88" y2="89.5"/>
	<line class="st0" x1="77.13" y1="62.5" x2="71.13" y2="89.5"/>
</g>
</svg>
