<?xml version="1.0" encoding="utf-8"?>
<!-- Generator: Adobe Illustrator 24.2.3, SVG Export Plug-In . SVG Version: 6.00 Build 0)  -->
<svg version="1.1" id="Calque_1" xmlns="http://www.w3.org/2000/svg" xmlns:xlink="http://www.w3.org/1999/xlink" x="0px" y="0px"
	 viewBox="0 0 100 100" style="enable-background:new 0 0 100 100;" xml:space="preserve">
<style type="text/css">
	.st0{fill:none;stroke:#FFFFFF;stroke-width:6;stroke-linecap:round;stroke-miterlimit:10;}
</style>
<g>
	<path class="st0" d="M32.5,34.71c2.47-12.08,13.16-21.16,25.96-21.16c14.64,0,25.23,11.92,26.5,26.5c1,11.5-7,23.5-22,23.5h-35
		c-8.01,0-13-6.49-13-14.5s6.49-14.5,14.5-14.5L32.5,34.71z"/>
	<path class="st0" d="M23.96,74.56c0,0,4,2,8,0"/>
	<path class="st0" d="M43.96,74.56c0,0,4,2,8,0"/>
	<path class="st0" d="M63.96,74.56c0,0,4,2,8,0"/>
	<path class="st0" d="M53.96,85.56c0,0,4,2,8,0"/>
	<path class="st0" d="M33.96,84.56c0,0,4,2,8,0"/>
</g>
</svg>
