<?xml version="1.0" encoding="utf-8"?>
<!-- Generator: Adobe Illustrator 24.2.3, SVG Export Plug-In . SVG Version: 6.00 Build 0)  -->
<svg version="1.1" id="Calque_1" xmlns="http://www.w3.org/2000/svg" xmlns:xlink="http://www.w3.org/1999/xlink" x="0px" y="0px"
	 viewBox="0 0 100 100" style="enable-background:new 0 0 100 100;" xml:space="preserve">
<style type="text/css">
	.st0{fill:none;stroke:#FFFFFF;stroke-width:6;stroke-linecap:round;stroke-linejoin:round;stroke-miterlimit:10;}
	.st1{fill:none;stroke:#FFFFFF;stroke-width:6;stroke-linecap:round;stroke-miterlimit:10;}
</style>
<g>
	<path class="st0" d="M7.75,56.73h61.37h0.44c7.61,0,13.79-6.17,13.79-13.79s-6.17-13.79-13.79-13.79
		c-7.61,0-13.79,6.17-13.79,13.79c0,1.55,0.26,3.04,0.73,4.43"/>
	<path class="st0" d="M14.87,47.83h19.57c6.39,0,11.56-5.18,11.56-11.56s-5.18-11.56-11.56-11.56s-11.56,5.18-11.56,11.56"/>
	<path class="st0" d="M14.87,65.62h39.2c5.86,0,10.62,4.75,10.62,10.62c0,5.86-4.75,10.62-10.62,10.62c-4.46,0-8.28-2.75-9.85-6.65
		c-0.49-1.22-0.76-2.56-0.76-3.96"/>
	<circle class="st1" cx="31.77" cy="77.19" r="0.89"/>
	<circle class="st1" cx="69.12" cy="14.03" r="0.89"/>
	<circle class="st1" cx="59.34" cy="21.15" r="0.89"/>
	<circle class="st1" cx="38.88" cy="14.92" r="0.89"/>
	<circle class="st1" cx="86.02" cy="76.3" r="0.89"/>
	<circle class="st1" cx="76.24" cy="64.73" r="0.89"/>
	<circle class="st1" cx="89.58" cy="20.26" r="0.89"/>
	<circle class="st1" cx="91.36" cy="51.39" r="0.89"/>
</g>
</svg>
