<?xml version="1.0" encoding="utf-8"?>
<!-- Generator: Adobe Illustrator 24.2.3, SVG Export Plug-In . SVG Version: 6.00 Build 0)  -->
<svg version="1.1" id="Calque_1" xmlns="http://www.w3.org/2000/svg" xmlns:xlink="http://www.w3.org/1999/xlink" x="0px" y="0px"
	 viewBox="0 0 100 100" style="enable-background:new 0 0 100 100;" xml:space="preserve">
<style type="text/css">
	.st0{fill:none;stroke:#FFFFFF;stroke-width:6;stroke-linecap:round;stroke-miterlimit:10;}
</style>
<g>
	<path class="st0" d="M31.96,63.5h-4c-8.01,0-13-6.49-13-14.5s6.49-14.5,14.5-14.5l3.04,0.16C34.97,22.58,45.65,13.5,58.46,13.5
		c14.64,0,25.23,11.92,26.5,26.5c0.82,9.44-4.42,19.22-14.62,22.42"/>
	<path class="st0" d="M69.79,65.73C68.01,57.04,60.32,50.5,51.1,50.5c-10.54,0-18.17,8.58-19.08,19.08
		C31.3,77.86,37.06,86.5,47.86,86.5h25.2c5.77,0,9.36-4.67,9.36-10.44c0-5.77-4.67-10.44-10.44-10.44L69.79,65.73z"/>
</g>
</svg>
