<?xml version="1.0" encoding="utf-8"?>
<!-- Generator: Adobe Illustrator 24.2.3, SVG Export Plug-In . SVG Version: 6.00 Build 0)  -->
<svg version="1.1" id="Calque_1" xmlns="http://www.w3.org/2000/svg" xmlns:xlink="http://www.w3.org/1999/xlink" x="0px" y="0px"
	 viewBox="0 0 100 100" style="enable-background:new 0 0 100 100;" xml:space="preserve">
<style type="text/css">
	.st0{fill:none;stroke:#FFFFFF;stroke-width:6;stroke-linecap:round;stroke-miterlimit:10;}
</style>
<g>
	<path class="st0" d="M19.55,52.66c-0.71-1.87-1.09-3.96-1.09-6.16c0-8.01,6.49-14.5,14.5-14.5L36,32.16
		C38.47,20.08,49.15,11,61.96,11c14.64,0,25.23,11.92,26.5,26.5c0.5,5.75-1.25,11.62-5,16.06c-2.22,2.63-5.15,4.76-8.72,6.05"/>
	<path class="st0" d="M11.46,61h46h-0.5c8.56,0,15.5-6.94,15.5-15.5S65.52,30,56.96,30s-15.5,6.94-15.5,15.5
		c0,1.76,0.29,3.45,0.83,5.02"/>
	<path class="st0" d="M14.46,71h27c4.97,0,9,4.03,9,9s-4.03,9-9,9s-9-4.03-9-9"/>
</g>
</svg>
