<?xml version="1.0" encoding="utf-8"?>
<!-- Generator: Adobe Illustrator 24.2.3, SVG Export Plug-In . SVG Version: 6.00 Build 0)  -->
<svg version="1.1" id="Calque_1" xmlns="http://www.w3.org/2000/svg" xmlns:xlink="http://www.w3.org/1999/xlink" x="0px" y="0px"
	 viewBox="0 0 100 100" style="enable-background:new 0 0 100 100;" xml:space="preserve">
<style type="text/css">
	.st0{fill:none;stroke:#FFFFFF;stroke-width:6;stroke-linecap:round;stroke-miterlimit:10;}
</style>
<g>
	<g>
		<path class="st0" d="M78.78,44.67h3.05c6.11,0,9.92-4.95,9.92-11.06S86.8,22.54,80.69,22.54l-2.32,0.12
			C76.48,13.45,68.33,6.51,58.56,6.51c-8.74,0-15.59,5.57-18.62,13.32"/>
		<path class="st0" d="M34.52,45.64H23.94c-3.94,0-6.39-3.19-6.39-7.13s3.19-7.13,7.13-7.13l1.49,0.08
			c1.21-5.94,6.47-10.4,12.76-10.4c3.46,0,6.46,1.35,8.71,3.55"/>
	</g>
	<path class="st0" d="M14.82,57.83h43.16h-0.47c8.03,0,14.54-6.51,14.54-14.54s-6.51-14.54-14.54-14.54s-14.54,6.51-14.54,14.54
		c0,1.65,0.27,3.23,0.78,4.71"/>
	<path class="st0" d="M18.57,76.6H43.9c4.66,0,8.44,3.78,8.44,8.44s-3.78,8.44-8.44,8.44s-8.44-3.78-8.44-8.44"/>
	<path class="st0" d="M8.25,67.22h69.84c7.25,0,13.13,5.88,13.13,13.13s-5.88,13.13-13.13,13.13c-7.25,0-13.13-5.88-13.13-13.13"/>
</g>
</svg>
